<svg xmlns="http://www.w3.org/2000/svg" width="907" height="144" viewBox="0 0 907 144" fill="none"><path fill="#fff" d="M698.28 140.834v2.48H679.2v-28.4h18.72v2.48H682v10.24h13.88v2.36H682v10.84zM643.968 143.514q-2.841 0-5.28-1.2a13.9 13.9 0 0 1-4.24-3.32 15.9 15.9 0 0 1-2.8-4.64 14.9 14.9 0 0 1-.96-5.28q0-2.88.96-5.44a15.1 15.1 0 0 1 2.76-4.601 13.1 13.1 0 0 1 4.16-3.16q2.4-1.16 5.24-1.159 4.2 0 6.84 1.72t4 4.48l-2.16 1.439q-1.36-2.64-3.64-3.879-2.28-1.24-5.08-1.24-2.36 0-4.28 1a10.4 10.4 0 0 0-3.24 2.68 12.2 12.2 0 0 0-2.08 3.8 14.3 14.3 0 0 0-.68 4.4q0 2.4.8 4.56a12.2 12.2 0 0 0 2.28 3.8 11.4 11.4 0 0 0 3.4 2.6 9.8 9.8 0 0 0 4.2.92q2.6 0 4.92-1.28 2.319-1.32 4.44-4.04v2.96q-4.04 4.88-9.56 4.88m9.12-12h-6.32v-2.16h8.68v13.96h-2.36zM597.391 114.914h2.36l11.8 28.4h-2.96l-3.68-8.88h-12.76l-3.64 8.88h-3zm6.88 17.32-5.72-14.04-5.8 14.04zM569.071 117.394h-10.12v25.92h-2.8v-25.92h-10.12v-2.48h23.04zM520.99 143.314v-28.4h2.799v28.4zM476.857 143.314v-28.4h12q1.839 0 3.36.76a8.3 8.3 0 0 1 2.64 2.08 8.9 8.9 0 0 1 1.76 2.88q.64 1.56.64 3.2 0 2.04-.8 3.84a8.1 8.1 0 0 1-2.2 3.04q-1.4 1.24-3.32 1.64l6.96 10.96h-3.16l-6.68-10.48h-8.4v10.48zm2.8-12.96h9.28q1.68 0 2.92-.92 1.239-.921 1.92-2.4.68-1.52.68-3.2a6.4 6.4 0 0 0-.8-3.16q-.76-1.48-2.08-2.36a4.8 4.8 0 0 0-2.88-.92h-9.04zM453.562 140.834v2.48h-19.08v-28.4h18.72v2.48h-15.92v10.24h13.88v2.36h-13.88v10.84zM409.35 114.914v28.4h-2.76v-13.28h-16.84v13.28h-2.8v-28.4h2.8v12.64h16.84v-12.64zM311.005 115.114h2.64l4 10.08 4.04-10.08h2.68l-4.96 12.12 5.44 12.84 10.28-25.16h3.04l-12.04 28.4h-2.48l-5.96-14.04-6 14.04h-2.44l-12-28.4h3l10.32 25.16 5.4-12.84zM277.03 140.834v2.48h-19.08v-28.4h18.72v2.48h-15.92v10.24h13.88v2.36h-13.88v10.84zM211.852 120.074v23.24h-2.8v-28.4h2.32l18.64 23.68v-23.64h2.8v28.36h-2.6zM422.439 85.314 443.113 1.8h15.885l-20.674 83.513zm-.233 0L401.532 1.8h16.002l20.556 83.513zM376.081 63.472V23.526h16.469v39.946zm-35.39 0V23.526h16.469v39.946zm51.859-39.829h-16.469q0-5.139-2.569-7.942t-7.008-2.803V.049q7.475 0 13.315 3.037 5.957 3.037 9.344 8.41 3.387 5.372 3.387 12.147m-51.859 0q0-6.774 3.387-12.147t9.227-8.41Q359.263.05 366.737.05v12.849q-4.439 0-7.008 2.803t-2.569 7.942zm51.859 39.712q0 6.891-3.387 12.264-3.387 5.256-9.344 8.41-5.84 3.037-13.315 3.037V74.217q4.439 0 7.008-2.803 2.57-2.92 2.569-8.059zm-51.859 0h16.469q0 5.14 2.569 8.06 2.57 2.802 7.008 2.802v12.849q-7.474 0-13.432-3.037-5.84-3.154-9.227-8.41-3.387-5.373-3.387-12.264M306.873 85.314 273.702 1.8h14.366l33.171 83.513zm-35.975 0V1.8h16.469v83.513zm39.946 0V1.8h16.469v83.513zM220.545 71.064V58.216h29.901v12.848zM241.218 1.8l-20.556 83.513H204.66L225.334 1.8zm.234 0 20.674 83.513h-15.885L225.567 1.8zM154.071 85.314 172.292 1.8h12.497l-18.22 83.513zm-.467 0L135.383 1.8h12.498l18.22 83.513zm-27.565 0V1.8h16.469v83.513zm51.626 0V1.8h16.468v83.513zM96.172 63.472V23.526h16.469v39.946zm-35.39 0V23.526H77.25v39.946zm51.859-39.829H96.172q0-5.139-2.57-7.942t-7.008-2.803V.049q7.475 0 13.316 3.037 5.957 3.037 9.344 8.41 3.387 5.372 3.387 12.147m-51.86 0q0-6.774 3.388-12.147t9.227-8.41Q79.353.05 86.828.05v12.849q-4.439 0-7.008 2.803t-2.57 7.942zm51.86 39.712q0 6.891-3.387 12.264-3.387 5.256-9.344 8.41-5.84 3.037-13.316 3.037V74.217q4.44 0 7.008-2.803 2.57-2.92 2.57-8.059zm-51.86 0h16.47q0 5.14 2.569 8.06 2.57 2.802 7.008 2.802v12.849q-7.474 0-13.432-3.037-5.84-3.154-9.227-8.41-3.387-5.373-3.387-12.264M33.522 85.314l-14.6-39.128h16.001L49.64 85.314zM14.483 53.31V40.462h7.826V53.31zm0-38.66V1.8h7.826V14.65zM31.77 29.834v-4.556h16.468v4.556zm16.468-4.439H31.77q0-5.139-2.57-7.942t-7.008-2.803V1.8q7.475 0 13.315 3.037 5.957 3.037 9.344 8.41 3.387 5.372 3.387 12.147m0 4.322q0 6.774-3.387 12.147t-9.344 8.41q-5.84 3.036-13.315 3.036V40.462q4.439 0 7.008-2.803t2.57-7.942zM0 85.314V1.8h16.469v83.513zM903.708 70.379h-23.002V4.736h-15.299v77.578h38.301zm-20.002-3h23.002v17.935h-44.301V1.736h21.299zM834.972 1.736l20.695 83.578h-20.938l-3.277-13.238h-12.527l-3.258 13.238h-21.049l20.679-83.578zm-17.316 3-19.205 77.578h14.864l3.259-13.238H833.8l3.277 13.238h14.756L832.629 4.736zm13.19 52.406h-11.334l5.65-22.957zm-7.506-3h3.673l-1.842-7.44zM792.488 4.736h-50.453v11.935h17.577v65.643h15.299V16.67h17.577zm3 14.935h-17.577v65.643h-21.299V19.67h-17.577V1.736h56.453zM726.818 4.736h-15.299v77.578h15.299zm3 80.578h-21.299V1.736h21.299zM667.934 3q-6.879.022-12.369 2.821l-.669.36q-4.951 2.773-7.902 7.452l-.382.629q-2.581 4.438-2.753 9.874l-.012.781v37.216h.002q.026 6.334 3.145 11.283 3.147 4.883 8.571 7.813 5.49 2.797 12.369 2.819v.002l.054-.001h.055v-.001q6.444-.02 11.576-2.478l.685-.341q5.085-2.746 8.168-7.21l.403-.603q3.119-4.948 3.144-11.283h.002V39.456h-23.389v11.935h11.09v10.633l-.008.588c-.095 2.388-1.345 4.897-3.582 6.702s-5.469 2.787-8.192 2.798c-3.496 0-6.44-1.112-8.19-2.601-1.75-1.49-3.502-3.995-3.595-6.899l-.01-.588V24.917c0-2.984.989-5.666 2.388-7.378 1.759-2.426 5.659-3.606 9.049-3.606 3.087.013 7.179 1.232 9.05 3.606 1.953 2.387 2.26 4.775 2.71 9.104h12.29c-.796-7.233-2.432-13.588-6.772-17.567Q678.46 3.001 667.934 3m-8.789 59.024.008.494c.597 2.431 1.7 3.846 2.857 4.912s3.918 1.672 5.93 1.682c2.033-.01 4.421-.422 5.932-1.678s2.128-1.934 2.843-4.916l.007-.494v-7.633h-11.09V36.456h29.389v28.677c-.409 3.577-1.72 6.887-3.609 9.884l-.016.025c-2.388 3.706-5.634 6.648-9.668 8.826l-.041.022c-3.241 1.685-6.802 2.817-10.644 3.16h-3l-.055-.001h-3.054c-3.853-.341-7.441-1.47-10.731-3.148l-.032-.016-.032-.017c-4.033-2.178-7.279-5.12-9.668-8.826l-.015-.025c-1.889-2.997-3.199-6.307-3.609-9.884V21.917c.404-3.565 1.711-6.874 3.609-9.884 2.392-3.794 5.655-6.757 9.725-8.874l.011-.006.011-.005c3.29-1.677 6.878-2.806 10.731-3.148h6.109c6.258.534 11.605 2.858 15.844 6.864 4.994 4.578 7.279 11.22 8.135 19v3.78h-18.68v-2.35c-.35-3.98-.35-5.48-1.62-7.728-1.287-1.633-3.562-2.63-7.14-2.63-3.788 0-6.19 1.383-7.14 2.63-.95 1.248-1.297 2.651-1.297 5.351zM625.375 4.736h-15.299v77.578h15.299zm3 80.578h-21.299V1.736h21.299zM591.059 25.871q-.171-5.434-2.753-9.873l-.38-.629q-2.95-4.68-7.903-7.451l-.669-.361q-5.425-2.82-12.369-2.82V16.67q4.124 0 6.402 2.604 2.237 2.441 2.377 6.79l.009.588v33.635l-.009.589q-.14 4.355-2.377 6.897-2.279 2.605-6.402 2.605h-6.184V16.67h6.184V1.736h3c3.884.334 7.481 1.458 10.753 3.16 4.071 2.116 7.334 5.08 9.726 8.874 1.897 3.01 3.204 6.318 3.608 9.883v39.852c-.42 3.536-1.738 6.809-3.608 9.775l-.009.013-.008.013c-2.388 3.706-5.634 6.648-9.668 8.826l-.02.012-.021.01c-3.272 1.702-6.862 2.826-10.746 3.16h-27.490000000000002V1.736h24.483v3h-21.483v77.578h21.483q6.51 0 11.685-2.48l.684-.342q5.087-2.746 8.169-7.209l.403-.602q3.091-4.907 3.142-11.176h.004V26.653zm-18.294.288c-.077-2.408-.72-3.908-1.59-4.857l-.024-.026-.022-.026c-.787-.9-1.925-1.5-3.766-1.572l-.378-.007h-3.184v47.708h3.184l.378-.008c1.841-.072 2.979-.673 3.766-1.572l.006-.006c.911-1.036 1.554-2.602 1.63-5.012l.008-.493V26.653z"/></svg>